# xmcd CD database file generated by OrangeCD 6.4
#
# Track frame offsets:
#	150
#	7342
#	18454
#	28245
#	48488
#	67719
#	81176
#	102688
#	116935
#	169428
#	195912
#	215469
#
# Disc length: 3117 seconds
#
# Revision: 0
# Processed by: cddbd v1.5.2PL0 Copyright (c) Steve Scherf et al.
# Submitted via: OrangeCD 6.4
#
DISCID=ab0c2b0c
DTITLE=Jimi Hendrix - Hendrix Live In Scandinavia Vol. 1
DYEAR=2007
DGENRE=Blues Rock
TTITLE0=Introduction and Tune-up
TTITLE1=Sgt. Pepper's Lonely Hearts Club Band
TTITLE2=EXP
TTITLE3=Up From The Skies
TTITLE4=Spanish Castle Magic
TTITLE5=Foxy Lady
TTITLE6=Little Wing
TTITLE7=Fire
TTITLE8=Catfish Blues
TTITLE9=The Wind Cries Mary
TTITLE10=Purple Haze
TTITLE11=Interview 08/01/68
EXTD=Stora Salen, Konserthuset, Stockholm, Sweden 1968-01-08, 1st show
EXTT0=
EXTT1=
EXTT2=
EXTT3=
EXTT4=
EXTT5=
EXTT6=
EXTT7=
EXTT8=
EXTT9=
EXTT10=
EXTT11=
PLAYORDER=
